solid brobot MODEL v5 (1)
facet normal 0.5555476312067541 -0.8314847139067346 0.0
  outer loop
    vertex -0.8400921756680529 182.80629073519825 5.800000000000682
    vertex -1.81339217566807 182.15599073519826 0.0
    vertex -0.8400921756680529 182.80629073519825 0.0
  endloop
endfacet
facet normal 0.5555476312067541 -0.8314847139067346 0.0
  outer loop
    vertex -1.81339217566807 182.15599073519826 0.0
    vertex -0.8400921756680529 182.80629073519825 5.800000000000682
    vertex -1.81339217566807 182.15599073519826 5.800000000000682
  endloop
endfacet
facet normal 0.9807805871221924 0.19511391525016264 -0.0
  outer loop
    vertex -0.18979217566806045 186.07569073519826 0.0
    vertex 0.03860782433194112 184.92759073519827 5.800000000000682
    vertex 0.03860782433194112 184.92759073519827 0.0
  endloop
endfacet
facet normal 0.9807805871221924 0.19511391525016264 -0.0
  outer loop
    vertex 0.03860782433194112 184.92759073519827 5.800000000000682
    vertex -0.18979217566806045 186.07569073519826 0.0
    vertex -0.18979217566806045 186.07569073519826 5.800000000000682
  endloop
endfacet
facet normal 0.9807773345779327 -0.1951302641268294 -0.0
  outer loop
    vertex 0.03860782433194112 184.92759073519827 0.0
    vertex -0.18979217566806045 183.77959073519827 5.800000000000682
    vertex -0.18979217566806045 183.77959073519827 0.0
  endloop
endfacet
facet normal 0.9807773345779327 -0.1951302641268294 -0.0
  outer loop
    vertex -0.18979217566806045 183.77959073519827 5.800000000000682
    vertex 0.03860782433194112 184.92759073519827 0.0
    vertex 0.03860782433194112 184.92759073519827 5.800000000000682
  endloop
endfacet
facet normal 0.8314847139067316 -0.5555476312067587 -0.0
  outer loop
    vertex -0.18979217566806045 183.77959073519827 0.0
    vertex -0.8400921756680529 182.80629073519825 5.800000000000682
    vertex -0.8400921756680529 182.80629073519825 0.0
  endloop
endfacet
facet normal 0.8314847139067316 -0.5555476312067587 -0.0
  outer loop
    vertex -0.8400921756680529 182.80629073519825 5.800000000000682
    vertex -0.18979217566806045 183.77959073519827 0.0
    vertex -0.18979217566806045 183.77959073519827 5.800000000000682
  endloop
endfacet
facet normal 0.1951302641268406 -0.9807773345779305 0.0
  outer loop
    vertex -1.81339217566807 182.15599073519826 5.800000000000682
    vertex -2.9613921756680646 181.92759073519827 0.0
    vertex -1.81339217566807 182.15599073519826 0.0
  endloop
endfacet
facet normal 0.1951302641268406 -0.9807773345779305 0.0
  outer loop
    vertex -2.9613921756680646 181.92759073519827 0.0
    vertex -1.81339217566807 182.15599073519826 5.800000000000682
    vertex -2.9613921756680646 181.92759073519827 5.800000000000682
  endloop
endfacet
facet normal -0.1950745622545535 -0.9807884150830875 0.0
  outer loop
    vertex -2.9613921756680646 181.92759073519827 5.800000000000682
    vertex -3.830692175668053 182.10049073519826 0.0
    vertex -2.9613921756680646 181.92759073519827 0.0
  endloop
endfacet
facet normal -0.1950745622545535 -0.9807884150830875 0.0
  outer loop
    vertex -3.830692175668053 182.10049073519826 0.0
    vertex -2.9613921756680646 181.92759073519827 5.800000000000682
    vertex -3.830692175668053 182.10049073519826 5.800000000000682
  endloop
endfacet
facet normal 0.8194238767148541 -0.573188023487581 -0.0
  outer loop
    vertex -3.830692175668053 182.10049073519826 0.0
    vertex -3.8867921756680603 182.02029073519827 5.800000000000682
    vertex -3.8867921756680603 182.02029073519827 0.0
  endloop
endfacet
facet normal 0.8194238767148541 -0.573188023487581 -0.0
  outer loop
    vertex -3.8867921756680603 182.02029073519827 5.800000000000682
    vertex -3.830692175668053 182.10049073519826 0.0
    vertex -3.830692175668053 182.10049073519826 5.800000000000682
  endloop
endfacet
facet normal -0.5734321830174909 -0.8192530326338712 0.0
  outer loop
    vertex -3.8867921756680603 182.02029073519827 5.800000000000682
    vertex -4.069092175668059 182.14789073519827 0.0
    vertex -3.8867921756680603 182.02029073519827 0.0
  endloop
endfacet
facet normal -0.5734321830174909 -0.8192530326338712 0.0
  outer loop
    vertex -4.069092175668059 182.14789073519827 0.0
    vertex -3.8867921756680603 182.02029073519827 5.800000000000682
    vertex -4.069092175668059 182.14789073519827 5.800000000000682
  endloop
endfacet
facet normal -0.19658283380192235 -0.9804872204442066 0.0
  outer loop
    vertex -4.069092175668059 182.14789073519827 5.800000000000682
    vertex -4.109492175668057 182.15599073519826 0.0
    vertex -4.069092175668059 182.14789073519827 0.0
  endloop
endfacet
facet normal -0.19658283380192235 -0.9804872204442066 0.0
  outer loop
    vertex -4.109492175668057 182.15599073519826 0.0
    vertex -4.069092175668059 182.14789073519827 5.800000000000682
    vertex -4.109492175668057 182.15599073519826 5.800000000000682
  endloop
endfacet
facet normal -0.5555870957498911 -0.8314583447390504 0.0
  outer loop
    vertex -4.109492175668057 182.15599073519826 5.800000000000682
    vertex -5.082692175668065 182.80629073519825 0.0
    vertex -4.109492175668057 182.15599073519826 0.0
  endloop
endfacet
facet normal -0.5555870957498911 -0.8314583447390504 0.0
  outer loop
    vertex -5.082692175668065 182.80629073519825 0.0
    vertex -4.109492175668057 182.15599073519826 5.800000000000682
    vertex -5.082692175668065 182.80629073519825 5.800000000000682
  endloop
endfacet
facet normal -0.8312551219751131 -0.5558911064139629 0.0
  outer loop
    vertex -5.147292175668063 182.90289073519827 5.800000000000682
    vertex -5.082692175668065 182.80629073519825 0.0
    vertex -5.082692175668065 182.80629073519825 5.800000000000682
  endloop
endfacet
facet normal -0.8312551219751131 -0.5558911064139629 0.0
  outer loop
    vertex -5.082692175668065 182.80629073519825 0.0
    vertex -5.147292175668063 182.90289073519827 5.800000000000682
    vertex -5.147292175668063 182.90289073519827 0.0
  endloop
endfacet
facet normal -0.5735766707213252 -0.8191518801811056 0.0
  outer loop
    vertex -5.147292175668063 182.90289073519827 5.800000000000682
    vertex -27.747292175668054 198.72759073519828 0.0
    vertex -5.147292175668063 182.90289073519827 0.0
  endloop
endfacet
facet normal -0.5735766707213252 -0.8191518801811056 0.0
  outer loop
    vertex -27.747292175668054 198.72759073519828 0.0
    vertex -5.147292175668063 182.90289073519827 5.800000000000682
    vertex -27.747292175668054 198.72759073519828 5.800000000000682
  endloop
endfacet
facet normal -0.1950892180471332 -0.980785499995671 0.0
  outer loop
    vertex -110.86139217566804 198.72759073519828 5.799999999999999
    vertex -112.00944217566804 198.95595073519826 0.0
    vertex -110.86139217566804 198.72759073519828 0.0
  endloop
endfacet
facet normal -0.1950892180471332 -0.980785499995671 0.0
  outer loop
    vertex -112.00944217566804 198.95595073519826 0.0
    vertex -110.86139217566804 198.72759073519828 5.799999999999999
    vertex -112.00944217566804 198.95595073519826 5.799999999999999
  endloop
endfacet
facet normal -0.8314689110030401 -0.555571282587049 0.0
  outer loop
    vertex -113.63303217566806 200.57954073519826 5.799999999999999
    vertex -112.98271217566807 199.60627073519828 0.0
    vertex -112.98271217566807 199.60627073519828 5.799999999999999
  endloop
endfacet
facet normal -0.8314689110030401 -0.555571282587049 0.0
  outer loop
    vertex -112.98271217566807 199.60627073519828 0.0
    vertex -113.63303217566806 200.57954073519826 5.799999999999999
    vertex -113.63303217566806 200.57954073519826 0.0
  endloop
endfacet
facet normal -0.5555712825870492 -0.83146891100304 0.0
  outer loop
    vertex -112.00944217566804 198.95595073519826 5.799999999999999
    vertex -112.98271217566807 199.60627073519828 0.0
    vertex -112.00944217566804 198.95595073519826 0.0
  endloop
endfacet
facet normal -0.5555712825870492 -0.83146891100304 0.0
  outer loop
    vertex -112.98271217566807 199.60627073519828 0.0
    vertex -112.00944217566804 198.95595073519826 5.799999999999999
    vertex -112.98271217566807 199.60627073519828 5.799999999999999
  endloop
endfacet
facet normal -0.9807854999956708 -0.19508921804713344 0.0
  outer loop
    vertex -113.86139217566806 201.72759073519828 5.799999999999999
    vertex -113.63303217566806 200.57954073519826 0.0
    vertex -113.63303217566806 200.57954073519826 5.799999999999999
  endloop
endfacet
facet normal -0.9807854999956708 -0.19508921804713344 0.0
  outer loop
    vertex -113.63303217566806 200.57954073519826 0.0
    vertex -113.86139217566806 201.72759073519828 5.799999999999999
    vertex -113.86139217566806 201.72759073519828 0.0
  endloop
endfacet
facet normal -0.9807854999956708 0.19508921804713344 0.0
  outer loop
    vertex -113.63303217566806 202.87564073519826 5.799999999999999
    vertex -113.86139217566806 201.72759073519828 0.0
    vertex -113.86139217566806 201.72759073519828 5.799999999999999
  endloop
endfacet
facet normal -0.9807854999956708 0.19508921804713344 0.0
  outer loop
    vertex -113.86139217566806 201.72759073519828 0.0
    vertex -113.63303217566806 202.87564073519826 5.799999999999999
    vertex -113.63303217566806 202.87564073519826 0.0
  endloop
endfacet
facet normal 0.0 0.0 -1.0
  outer loop
    vertex -0.8400921756680529 220.64889073519825 0.0
    vertex -1.4373921756680634 216.00709073519826 0.0
    vertex -1.81339217566807 221.2991907351983 0.0
  endloop
endfacet
facet normal 0.0 0.0 -1.0
  outer loop
    vertex -1.4373921756680634 216.00709073519826 0.0
    vertex -0.8400921756680529 220.64889073519825 0.0
    vertex -0.8400921756680529 216.40629073519827 0.0
  endloop
endfacet
facet normal 0.0 0.0 -1.0
  outer loop
    vertex -0.8400921756680529 216.40629073519827 0.0
    vertex -0.8400921756680529 220.64889073519825 0.0
    vertex -0.18979217566806045 219.67559073519823 0.0
  endloop
endfacet
facet normal 0.0 0.0 -1.0
  outer loop
    vertex -0.8400921756680529 216.40629073519827 0.0
    vertex -0.18979217566806045 219.67559073519823 0.0
    vertex -0.18979217566806045 217.3794907351983 0.0
  endloop
endfacet
facet normal 0.0 0.0 -1.0
  outer loop
    vertex -0.18979217566806045 217.3794907351983 0.0
    vertex -0.18979217566806045 219.67559073519823 0.0
    vertex 0.03860782433194112 218.5275907351983 0.0
  endloop
endfacet
facet normal 0.0 0.0 -1.0
  outer loop
    vertex -27.853192175668067 204.72759073519825 0.0
    vertex -43.74246853462616 198.72759073519828 0.0
    vertex -43.74246853462616 204.72759073519825 0.0
  endloop
endfacet
facet normal 0.0 0.0 -1.0
  outer loop
    vertex -43.74246853462616 198.72759073519828 0.0
    vertex -27.853192175668067 204.72759073519825 0.0
    vertex -27.747292175668054 198.72759073519828 0.0
  endloop
endfacet
facet normal 0.0 0.0 -1.0
  outer loop
    vertex -27.747292175668054 198.72759073519828 0.0
    vertex -27.853192175668067 204.72759073519825 0.0
    vertex -4.828292175668068 220.84979073519827 0.0
  endloop
endfacet
facet normal 0.0 0.0 -1.0
  outer loop
    vertex -27.747292175668054 198.72759073519828 0.0
    vertex -4.828292175668068 220.84979073519827 0.0
    vertex -21.62399217566806 201.76465503519827 0.0
  endloop
endfacet
facet normal 0.0 0.0 -1.0
  outer loop
    vertex -21.62399217566806 201.76465503519827 0.0
    vertex -4.828292175668068 220.84979073519827 0.0
    vertex -4.81359217566806 220.82879073519828 0.0
  endloop
endfacet
facet normal 0.0 0.0 -1.0
  outer loop
    vertex -21.62399217566806 201.76465503519827 0.0
    vertex -4.81359217566806 220.82879073519828 0.0
    vertex -1.4373921756680634 216.00709073519826 0.0
  endloop
endfacet
facet normal 0.0 0.0 -1.0
  outer loop
    vertex -21.62399217566806 201.76465503519827 0.0
    vertex -1.4373921756680634 216.00709073519826 0.0
    vertex -1.3867921756680535 215.93489073519825 0.0
  endloop
endfacet
facet normal 0.0 0.0 -1.0
  outer loop
    vertex -1.4373921756680634 216.00709073519826 0.0
    vertex -4.81359217566806 220.82879073519828 0.0
    vertex -4.109492175668057 221.2991907351983 0.0
  endloop
endfacet
facet normal 0.0 0.0 -1.0
  outer loop
    vertex -1.4373921756680634 216.00709073519826 0.0
    vertex -4.109492175668057 221.2991907351983 0.0
    vertex -2.9613921756680646 221.52759073519826 0.0
  endloop
endfacet
facet normal 0.0 0.0 -1.0
  outer loop
    vertex -1.4373921756680634 216.00709073519826 0.0
    vertex -2.9613921756680646 221.52759073519826 0.0
    vertex -1.81339217566807 221.2991907351983 0.0
  endloop
endfacet
facet normal 0.0 0.0 -1.0
  outer loop
    vertex -21.62399217566806 201.76465503519827 0.0
    vertex -5.147292175668063 182.90289073519827 0.0
    vertex -27.747292175668054 198.72759073519828 0.0
  endloop
endfacet
facet normal 0.0 0.0 -1.0
  outer loop
    vertex -5.147292175668063 182.90289073519827 0.0
    vertex -21.62399217566806 201.76465503519827 0.0
    vertex -0.4453921756680553 186.93519073519826 0.0
  endloop
endfacet
facet normal 0.0 0.0 -1.0
  outer loop
    vertex -5.147292175668063 182.90289073519827 0.0
    vertex -0.4453921756680553 186.93519073519826 0.0
    vertex -5.082692175668065 182.80629073519825 0.0
  endloop
endfacet
facet normal 0.0 0.0 -1.0
  outer loop
    vertex -5.082692175668065 182.80629073519825 0.0
    vertex -0.4453921756680553 186.93519073519826 0.0
    vertex -4.109492175668057 182.15599073519826 0.0
  endloop
endfacet
facet normal 0.0 0.0 -1.0
  outer loop
    vertex -4.109492175668057 182.15599073519826 0.0
    vertex -0.4453921756680553 186.93519073519826 0.0
    vertex -4.069092175668059 182.14789073519827 0.0
  endloop
endfacet
facet normal 0.0 0.0 -1.0
  outer loop
    vertex -4.069092175668059 182.14789073519827 0.0
    vertex -0.4453921756680553 186.93519073519826 0.0
    vertex -0.6084921756680621 186.70229073519826 0.0
  endloop
endfacet
facet normal 0.0 0.0 -1.0
  outer loop
    vertex -4.069092175668059 182.14789073519827 0.0
    vertex -0.6084921756680621 186.70229073519826 0.0
    vertex -3.830692175668053 182.10049073519826 0.0
  endloop
endfacet
facet normal 0.0 0.0 -1.0
  outer loop
    vertex -4.069092175668059 182.14789073519827 0.0
    vertex -3.830692175668053 182.10049073519826 0.0
    vertex -3.8867921756680603 182.02029073519827 0.0
  endloop
endfacet
facet normal 0.0 0.0 -1.0
  outer loop
    vertex -3.830692175668053 182.10049073519826 0.0
    vertex -0.6084921756680621 186.70229073519826 0.0
    vertex -2.9613921756680646 181.92759073519827 0.0
  endloop
endfacet
facet normal 0.0 0.0 -1.0
  outer loop
    vertex -2.9613921756680646 181.92759073519827 0.0
    vertex -0.6084921756680621 186.70229073519826 0.0
    vertex -1.81339217566807 182.15599073519826 0.0
  endloop
endfacet
facet normal 0.0 0.0 -1.0
  outer loop
    vertex -1.81339217566807 182.15599073519826 0.0
    vertex -0.6084921756680621 186.70229073519826 0.0
    vertex -0.8400921756680529 182.80629073519825 0.0
  endloop
endfacet
facet normal 0.0 0.0 -1.0
  outer loop
    vertex -0.6084921756680621 186.70229073519826 0.0
    vertex -0.18979217566806045 183.77959073519827 0.0
    vertex -0.8400921756680529 182.80629073519825 0.0
  endloop
endfacet
facet normal 0.0 0.0 -1.0
  outer loop
    vertex -0.18979217566806045 183.77959073519827 0.0
    vertex -0.6084921756680621 186.70229073519826 0.0
    vertex -0.18979217566806045 186.07569073519826 0.0
  endloop
endfacet
facet normal 0.0 0.0 -1.0
  outer loop
    vertex -0.18979217566806045 183.77959073519827 0.0
    vertex -0.18979217566806045 186.07569073519826 0.0
    vertex 0.03860782433194112 184.92759073519827 0.0
  endloop
endfacet
facet normal 0.819231920518751 0.5734623443637418 -0.0
  outer loop
    vertex -4.828292175668068 220.84979073519827 0.0
    vertex -4.81359217566806 220.82879073519828 5.800000000000682
    vertex -4.81359217566806 220.82879073519828 0.0
  endloop
endfacet
facet normal 0.819231920518751 0.5734623443637418 -0.0
  outer loop
    vertex -4.81359217566806 220.82879073519828 5.800000000000682
    vertex -4.828292175668068 220.84979073519827 0.0
    vertex -4.828292175668068 220.84979073519827 5.800000000000682
  endloop
endfacet
facet normal -0.5555175071876758 0.831504840159088 -0.0
  outer loop
    vertex -4.81359217566806 220.82879073519828 5.800000000000682
    vertex -4.109492175668057 221.2991907351983 0.0
    vertex -4.81359217566806 220.82879073519828 0.0
  endloop
endfacet
facet normal -0.5555175071876758 0.831504840159088 -0.0
  outer loop
    vertex -4.109492175668057 221.2991907351983 0.0
    vertex -4.81359217566806 220.82879073519828 5.800000000000682
    vertex -4.109492175668057 221.2991907351983 5.800000000000682
  endloop
endfacet
facet normal -0.19511391525015334 0.9807805871221942 -0.0
  outer loop
    vertex -4.109492175668057 221.2991907351983 5.800000000000682
    vertex -2.9613921756680646 221.52759073519826 0.0
    vertex -4.109492175668057 221.2991907351983 0.0
  endloop
endfacet
facet normal -0.19511391525015334 0.9807805871221942 -0.0
  outer loop
    vertex -2.9613921756680646 221.52759073519826 0.0
    vertex -4.109492175668057 221.2991907351983 5.800000000000682
    vertex -2.9613921756680646 221.52759073519826 5.800000000000682
  endloop
endfacet
facet normal 0.19513026412682202 0.9807773345779341 -0.0
  outer loop
    vertex -2.9613921756680646 221.52759073519826 5.800000000000682
    vertex -1.81339217566807 221.2991907351983 0.0
    vertex -2.9613921756680646 221.52759073519826 0.0
  endloop
endfacet
facet normal 0.19513026412682202 0.9807773345779341 -0.0
  outer loop
    vertex -1.81339217566807 221.2991907351983 0.0
    vertex -2.9613921756680646 221.52759073519826 5.800000000000682
    vertex -1.81339217566807 221.2991907351983 5.800000000000682
  endloop
endfacet
facet normal 0.5555476312067809 0.831484713906717 -0.0
  outer loop
    vertex -1.81339217566807 221.2991907351983 5.800000000000682
    vertex -0.8400921756680529 220.64889073519825 0.0
    vertex -1.81339217566807 221.2991907351983 0.0
  endloop
endfacet
facet normal 0.5555476312067809 0.831484713906717 -0.0
  outer loop
    vertex -0.8400921756680529 220.64889073519825 0.0
    vertex -1.81339217566807 221.2991907351983 5.800000000000682
    vertex -0.8400921756680529 220.64889073519825 5.800000000000682
  endloop
endfacet
facet normal 0.8314847139067316 0.5555476312067587 -0.0
  outer loop
    vertex -0.8400921756680529 220.64889073519825 0.0
    vertex -0.18979217566806045 219.67559073519823 5.800000000000682
    vertex -0.18979217566806045 219.67559073519823 0.0
  endloop
endfacet
facet normal 0.8314847139067316 0.5555476312067587 -0.0
  outer loop
    vertex -0.18979217566806045 219.67559073519823 5.800000000000682
    vertex -0.8400921756680529 220.64889073519825 0.0
    vertex -0.8400921756680529 220.64889073519825 5.800000000000682
  endloop
endfacet
facet normal 0.9807773345779311 0.19513026412683676 -0.0
  outer loop
    vertex -0.18979217566806045 219.67559073519823 0.0
    vertex 0.03860782433194112 218.5275907351983 5.800000000000682
    vertex 0.03860782433194112 218.5275907351983 0.0
  endloop
endfacet
facet normal 0.9807773345779311 0.19513026412683676 -0.0
  outer loop
    vertex 0.03860782433194112 218.5275907351983 5.800000000000682
    vertex -0.18979217566806045 219.67559073519823 0.0
    vertex -0.18979217566806045 219.67559073519823 5.800000000000682
  endloop
endfacet
facet normal 0.9807805871221924 -0.19511391525016264 -0.0
  outer loop
    vertex 0.03860782433194112 218.5275907351983 0.0
    vertex -0.18979217566806045 217.3794907351983 5.800000000000682
    vertex -0.18979217566806045 217.3794907351983 0.0
  endloop
endfacet
facet normal 0.9807805871221924 -0.19511391525016264 -0.0
  outer loop
    vertex -0.18979217566806045 217.3794907351983 5.800000000000682
    vertex 0.03860782433194112 218.5275907351983 0.0
    vertex 0.03860782433194112 218.5275907351983 5.800000000000682
  endloop
endfacet
facet normal 0.8314583447390533 -0.5555870957498865 -0.0
  outer loop
    vertex -0.18979217566806045 217.3794907351983 0.0
    vertex -0.8400921756680529 216.40629073519827 5.800000000000682
    vertex -0.8400921756680529 216.40629073519827 0.0
  endloop
endfacet
facet normal 0.8314583447390533 -0.5555870957498865 -0.0
  outer loop
    vertex -0.8400921756680529 216.40629073519827 5.800000000000682
    vertex -0.18979217566806045 217.3794907351983 0.0
    vertex -0.18979217566806045 217.3794907351983 5.800000000000682
  endloop
endfacet
facet normal 0.555663476755168 -0.8314073012671701 0.0
  outer loop
    vertex -0.8400921756680529 216.40629073519827 5.800000000000682
    vertex -1.4373921756680634 216.00709073519826 0.0
    vertex -0.8400921756680529 216.40629073519827 0.0
  endloop
endfacet
facet normal 0.555663476755168 -0.8314073012671701 0.0
  outer loop
    vertex -1.4373921756680634 216.00709073519826 0.0
    vertex -0.8400921756680529 216.40629073519827 5.800000000000682
    vertex -1.4373921756680634 216.00709073519826 5.800000000000682
  endloop
endfacet
facet normal 0.8189120781347755 0.5739189910475025 -0.0
  outer loop
    vertex -1.4373921756680634 216.00709073519826 0.0
    vertex -1.3867921756680535 215.93489073519825 5.800000000000682
    vertex -1.3867921756680535 215.93489073519825 0.0
  endloop
endfacet
facet normal 0.8189120781347755 0.5739189910475025 -0.0
  outer loop
    vertex -1.3867921756680535 215.93489073519825 5.800000000000682
    vertex -1.4373921756680634 216.00709073519826 0.0
    vertex -1.4373921756680634 216.00709073519826 5.800000000000682
  endloop
endfacet
facet normal 0.5735763197697248 -0.8191521259200994 0.0
  outer loop
    vertex -1.3867921756680535 215.93489073519825 5.800000000000682
    vertex -21.62399217566806 201.76465503519827 0.0
    vertex -1.3867921756680535 215.93489073519825 0.0
  endloop
endfacet
facet normal 0.5735763197697248 -0.8191521259200994 0.0
  outer loop
    vertex -21.62399217566806 201.76465503519827 0.0
    vertex -1.3867921756680535 215.93489073519825 5.800000000000682
    vertex -21.62399217566806 201.76465503519827 5.800000000000682
  endloop
endfacet
facet normal 0.5735777062878437 0.8191511550682062 -0.0
  outer loop
    vertex -21.62399217566806 201.76465503519827 5.800000000000682
    vertex -0.4453921756680553 186.93519073519826 0.0
    vertex -21.62399217566806 201.76465503519827 0.0
  endloop
endfacet
facet normal 0.5735777062878437 0.8191511550682062 -0.0
  outer loop
    vertex -0.4453921756680553 186.93519073519826 0.0
    vertex -21.62399217566806 201.76465503519827 5.800000000000682
    vertex -0.4453921756680553 186.93519073519826 5.800000000000682
  endloop
endfacet
facet normal 0.8191162431446507 -0.5736275622881049 -0.0
  outer loop
    vertex -0.4453921756680553 186.93519073519826 0.0
    vertex -0.6084921756680621 186.70229073519826 5.800000000000682
    vertex -0.6084921756680621 186.70229073519826 0.0
  endloop
endfacet
facet normal 0.8191162431446507 -0.5736275622881049 -0.0
  outer loop
    vertex -0.6084921756680621 186.70229073519826 5.800000000000682
    vertex -0.4453921756680553 186.93519073519826 0.0
    vertex -0.4453921756680553 186.93519073519826 5.800000000000682
  endloop
endfacet
facet normal 0.8314578030636158 0.5555879063880221 -0.0
  outer loop
    vertex -0.6084921756680621 186.70229073519826 0.0
    vertex -0.18979217566806045 186.07569073519826 5.800000000000682
    vertex -0.18979217566806045 186.07569073519826 0.0
  endloop
endfacet
facet normal 0.8314578030636158 0.5555879063880221 -0.0
  outer loop
    vertex -0.18979217566806045 186.07569073519826 5.800000000000682
    vertex -0.6084921756680621 186.70229073519826 0.0
    vertex -0.6084921756680621 186.70229073519826 5.800000000000682
  endloop
endfacet
facet normal -0.1950892180471332 0.980785499995671 0.0
  outer loop
    vertex -112.00944217566804 204.49923073519827 5.799999999999999
    vertex -110.86139217566804 204.72759073519825 0.0
    vertex -112.00944217566804 204.49923073519827 0.0
  endloop
endfacet
facet normal -0.1950892180471332 0.980785499995671 0.0
  outer loop
    vertex -110.86139217566804 204.72759073519825 0.0
    vertex -112.00944217566804 204.49923073519827 5.799999999999999
    vertex -110.86139217566804 204.72759073519825 5.799999999999999
  endloop
endfacet
facet normal -0.5555712825870491 0.83146891100304 0.0
  outer loop
    vertex -112.98271217566807 203.84891073519827 5.799999999999999
    vertex -112.00944217566804 204.49923073519827 0.0
    vertex -112.98271217566807 203.84891073519827 0.0
  endloop
endfacet
facet normal -0.5555712825870491 0.83146891100304 0.0
  outer loop
    vertex -112.00944217566804 204.49923073519827 0.0
    vertex -112.98271217566807 203.84891073519827 5.799999999999999
    vertex -112.00944217566804 204.49923073519827 5.799999999999999
  endloop
endfacet
facet normal -0.83146891100304 0.555571282587049 0.0
  outer loop
    vertex -112.98271217566807 203.84891073519827 5.799999999999999
    vertex -113.63303217566806 202.87564073519826 0.0
    vertex -113.63303217566806 202.87564073519826 5.799999999999999
  endloop
endfacet
facet normal -0.83146891100304 0.555571282587049 0.0
  outer loop
    vertex -113.63303217566806 202.87564073519826 0.0
    vertex -112.98271217566807 203.84891073519827 5.799999999999999
    vertex -112.98271217566807 203.84891073519827 0.0
  endloop
endfacet
facet normal 0.9238796252056053 -0.3826832085811322 0.0
  outer loop
    vertex -106.78063117566805 202.64682973519825 0.0
    vertex -107.16139217566806 201.72759073519828 5.799999999999999
    vertex -107.16139217566806 201.72759073519828 0.0
  endloop
endfacet
facet normal 0.9238796252056053 -0.3826832085811322 0.0
  outer loop
    vertex -107.16139217566806 201.72759073519828 5.799999999999999
    vertex -106.78063117566805 202.64682973519825 0.0
    vertex -106.78063117566805 202.64682973519825 5.799999999999999
  endloop
endfacet
facet normal 0.9238796252056053 0.3826832085811322 0.0
  outer loop
    vertex -107.16139217566806 201.72759073519828 0.0
    vertex -106.78063117566805 200.80835173519827 5.799999999999999
    vertex -106.78063117566805 200.80835173519827 0.0
  endloop
endfacet
facet normal 0.9238796252056053 0.3826832085811322 0.0
  outer loop
    vertex -106.78063117566805 200.80835173519827 5.799999999999999
    vertex -107.16139217566806 201.72759073519828 0.0
    vertex -107.16139217566806 201.72759073519828 5.799999999999999
  endloop
endfacet
facet normal 0.3826832085811322 -0.9238796252056053 0.0
  outer loop
    vertex -105.86139217566806 203.02759073519826 5.799999999999999
    vertex -106.78063117566805 202.64682973519825 0.0
    vertex -105.86139217566806 203.02759073519826 0.0
  endloop
endfacet
facet normal 0.3826832085811322 -0.9238796252056053 0.0
  outer loop
    vertex -106.78063117566805 202.64682973519825 0.0
    vertex -105.86139217566806 203.02759073519826 5.799999999999999
    vertex -106.78063117566805 202.64682973519825 5.799999999999999
  endloop
endfacet
facet normal -0.3826832085811322 -0.9238796252056053 0.0
  outer loop
    vertex -104.94215317566807 202.64682973519825 5.799999999999999
    vertex -105.86139217566806 203.02759073519826 0.0
    vertex -104.94215317566807 202.64682973519825 0.0
  endloop
endfacet
facet normal -0.3826832085811322 -0.9238796252056053 0.0
  outer loop
    vertex -105.86139217566806 203.02759073519826 0.0
    vertex -104.94215317566807 202.64682973519825 5.799999999999999
    vertex -105.86139217566806 203.02759073519826 5.799999999999999
  endloop
endfacet
facet normal -0.9238796252056053 -0.3826832085811322 0.0
  outer loop
    vertex -104.94215317566807 202.64682973519825 5.799999999999999
    vertex -104.56139217566806 201.72759073519828 0.0
    vertex -104.56139217566806 201.72759073519828 5.799999999999999
  endloop
endfacet
facet normal -0.9238796252056053 -0.3826832085811322 0.0
  outer loop
    vertex -104.56139217566806 201.72759073519828 0.0
    vertex -104.94215317566807 202.64682973519825 5.799999999999999
    vertex -104.94215317566807 202.64682973519825 0.0
  endloop
endfacet
facet normal -0.9238796252056053 0.3826832085811322 0.0
  outer loop
    vertex -104.56139217566806 201.72759073519828 5.799999999999999
    vertex -104.94215317566807 200.80835173519827 0.0
    vertex -104.94215317566807 200.80835173519827 5.799999999999999
  endloop
endfacet
facet normal -0.9238796252056053 0.3826832085811322 0.0
  outer loop
    vertex -104.94215317566807 200.80835173519827 0.0
    vertex -104.56139217566806 201.72759073519828 5.799999999999999
    vertex -104.56139217566806 201.72759073519828 0.0
  endloop
endfacet
facet normal -0.3826832085811322 0.9238796252056053 0.0
  outer loop
    vertex -105.86139217566806 200.42759073519827 5.799999999999999
    vertex -104.94215317566807 200.80835173519827 0.0
    vertex -105.86139217566806 200.42759073519827 0.0
  endloop
endfacet
facet normal -0.3826832085811322 0.9238796252056053 0.0
  outer loop
    vertex -104.94215317566807 200.80835173519827 0.0
    vertex -105.86139217566806 200.42759073519827 5.799999999999999
    vertex -104.94215317566807 200.80835173519827 5.799999999999999
  endloop
endfacet
facet normal 0.3826832085811322 0.9238796252056053 0.0
  outer loop
    vertex -106.78063117566805 200.80835173519827 5.799999999999999
    vertex -105.86139217566806 200.42759073519827 0.0
    vertex -106.78063117566805 200.80835173519827 0.0
  endloop
endfacet
facet normal 0.3826832085811322 0.9238796252056053 0.0
  outer loop
    vertex -105.86139217566806 200.42759073519827 0.0
    vertex -106.78063117566805 200.80835173519827 5.799999999999999
    vertex -105.86139217566806 200.42759073519827 5.799999999999999
  endloop
endfacet
facet normal 0.9238802275962913 -0.3826817542771347 0.0
  outer loop
    vertex -99.70992217566805 202.57611873519826 0.0
    vertex -100.06139217566806 201.72759073519828 5.799999999999999
    vertex -100.06139217566806 201.72759073519828 0.0
  endloop
endfacet
facet normal 0.9238802275962913 -0.3826817542771347 0.0
  outer loop
    vertex -100.06139217566806 201.72759073519828 5.799999999999999
    vertex -99.70992217566805 202.57611873519826 0.0
    vertex -99.70992217566805 202.57611873519826 5.799999999999999
  endloop
endfacet
facet normal 0.9238802275962913 0.3826817542771347 0.0
  outer loop
    vertex -100.06139217566806 201.72759073519828 0.0
    vertex -99.70992217566805 200.87906273519826 5.799999999999999
    vertex -99.70992217566805 200.87906273519826 0.0
  endloop
endfacet
facet normal 0.9238802275962913 0.3826817542771347 0.0
  outer loop
    vertex -99.70992217566805 200.87906273519826 5.799999999999999
    vertex -100.06139217566806 201.72759073519828 0.0
    vertex -100.06139217566806 201.72759073519828 5.799999999999999
  endloop
endfacet
facet normal 0.38268284308283074 -0.9238797765997704 0.0
  outer loop
    vertex -98.86139217566806 202.92759073519827 5.799999999999999
    vertex -99.70992217566805 202.57611873519826 0.0
    vertex -98.86139217566806 202.92759073519827 0.0
  endloop
endfacet
facet normal 0.38268284308283074 -0.9238797765997704 0.0
  outer loop
    vertex -99.70992217566805 202.57611873519826 0.0
    vertex -98.86139217566806 202.92759073519827 5.799999999999999
    vertex -99.70992217566805 202.57611873519826 5.799999999999999
  endloop
endfacet
facet normal -0.3826828430828309 -0.9238797765997703 0.0
  outer loop
    vertex -98.01286217566805 202.57611873519826 5.799999999999999
    vertex -98.86139217566806 202.92759073519827 0.0
    vertex -98.01286217566805 202.57611873519826 0.0
  endloop
endfacet
facet normal -0.3826828430828309 -0.9238797765997703 0.0
  outer loop
    vertex -98.86139217566806 202.92759073519827 0.0
    vertex -98.01286217566805 202.57611873519826 5.799999999999999
    vertex -98.86139217566806 202.92759073519827 5.799999999999999
  endloop
endfacet
facet normal -0.9238802275962914 -0.38268175427713397 0.0
  outer loop
    vertex -98.01286217566805 202.57611873519826 5.799999999999999
    vertex -97.66139217566806 201.72759073519828 0.0
    vertex -97.66139217566806 201.72759073519828 5.799999999999999
  endloop
endfacet
facet normal -0.9238802275962914 -0.38268175427713397 0.0
  outer loop
    vertex -97.66139217566806 201.72759073519828 0.0
    vertex -98.01286217566805 202.57611873519826 5.799999999999999
    vertex -98.01286217566805 202.57611873519826 0.0
  endloop
endfacet
facet normal -0.9238802275962914 0.38268175427713397 0.0
  outer loop
    vertex -97.66139217566806 201.72759073519828 5.799999999999999
    vertex -98.01286217566805 200.87906273519826 0.0
    vertex -98.01286217566805 200.87906273519826 5.799999999999999
  endloop
endfacet
facet normal -0.9238802275962914 0.38268175427713397 0.0
  outer loop
    vertex -98.01286217566805 200.87906273519826 0.0
    vertex -97.66139217566806 201.72759073519828 5.799999999999999
    vertex -97.66139217566806 201.72759073519828 0.0
  endloop
endfacet
facet normal -0.3826828430828309 0.9238797765997703 0.0
  outer loop
    vertex -98.86139217566806 200.52759073519826 5.799999999999999
    vertex -98.01286217566805 200.87906273519826 0.0
    vertex -98.86139217566806 200.52759073519826 0.0
  endloop
endfacet
facet normal -0.3826828430828309 0.9238797765997703 0.0
  outer loop
    vertex -98.01286217566805 200.87906273519826 0.0
    vertex -98.86139217566806 200.52759073519826 5.799999999999999
    vertex -98.01286217566805 200.87906273519826 5.799999999999999
  endloop
endfacet
facet normal 0.3826828430828307 0.9238797765997704 0.0
  outer loop
    vertex -99.70992217566805 200.87906273519826 5.799999999999999
    vertex -98.86139217566806 200.52759073519826 0.0
    vertex -99.70992217566805 200.87906273519826 0.0
  endloop
endfacet
facet normal 0.3826828430828307 0.9238797765997704 0.0
  outer loop
    vertex -98.86139217566806 200.52759073519826 0.0
    vertex -99.70992217566805 200.87906273519826 5.799999999999999
    vertex -98.86139217566806 200.52759073519826 5.799999999999999
  endloop
endfacet
facet normal 0.9238686788572109 -0.38270963435303257 0.0
  outer loop
    vertex -93.60989217566805 202.57611873519826 0.0
    vertex -93.96139217566805 201.72759073519828 5.799999999999999
    vertex -93.96139217566805 201.72759073519828 0.0
  endloop
endfacet
facet normal 0.9238686788572109 -0.38270963435303257 0.0
  outer loop
    vertex -93.96139217566805 201.72759073519828 5.799999999999999
    vertex -93.60989217566805 202.57611873519826 0.0
    vertex -93.60989217566805 202.57611873519826 5.799999999999999
  endloop
endfacet
facet normal 0.9238686788572109 0.38270963435303257 0.0
  outer loop
    vertex -93.96139217566805 201.72759073519828 0.0
    vertex -93.60989217566805 200.87906273519826 5.799999999999999
    vertex -93.60989217566805 200.87906273519826 0.0
  endloop
endfacet
facet normal 0.9238686788572109 0.38270963435303257 0.0
  outer loop
    vertex -93.60989217566805 200.87906273519826 5.799999999999999
    vertex -93.96139217566805 201.72759073519828 0.0
    vertex -93.96139217566805 201.72759073519828 5.799999999999999
  endloop
endfacet
facet normal 0.382694391858573 -0.9238749928642928 0.0
  outer loop
    vertex -92.76139217566806 202.92759073519827 5.799999999999999
    vertex -93.60989217566805 202.57611873519826 0.0
    vertex -92.76139217566806 202.92759073519827 0.0
  endloop
endfacet
facet normal 0.382694391858573 -0.9238749928642928 0.0
  outer loop
    vertex -93.60989217566805 202.57611873519826 0.0
    vertex -92.76139217566806 202.92759073519827 5.799999999999999
    vertex -93.60989217566805 202.57611873519826 5.799999999999999
  endloop
endfacet
facet normal -0.382694391858573 -0.9238749928642928 0.0
  outer loop
    vertex -91.91289217566806 202.57611873519826 5.799999999999999
    vertex -92.76139217566806 202.92759073519827 0.0
    vertex -91.91289217566806 202.57611873519826 0.0
  endloop
endfacet
facet normal -0.382694391858573 -0.9238749928642928 0.0
  outer loop
    vertex -92.76139217566806 202.92759073519827 0.0
    vertex -91.91289217566806 202.57611873519826 5.799999999999999
    vertex -92.76139217566806 202.92759073519827 5.799999999999999
  endloop
endfacet
facet normal -0.9238686788572104 -0.38270963435303385 0.0
  outer loop
    vertex -91.91289217566806 202.57611873519826 5.799999999999999
    vertex -91.56139217566806 201.72759073519828 0.0
    vertex -91.56139217566806 201.72759073519828 5.799999999999999
  endloop
endfacet
facet normal -0.9238686788572104 -0.38270963435303385 0.0
  outer loop
    vertex -91.56139217566806 201.72759073519828 0.0
    vertex -91.91289217566806 202.57611873519826 5.799999999999999
    vertex -91.91289217566806 202.57611873519826 0.0
  endloop
endfacet
facet normal -0.9238686788572104 0.38270963435303385 0.0
  outer loop
    vertex -91.56139217566806 201.72759073519828 5.799999999999999
    vertex -91.91289217566806 200.87906273519826 0.0
    vertex -91.91289217566806 200.87906273519826 5.799999999999999
  endloop
endfacet
facet normal -0.9238686788572104 0.38270963435303385 0.0
  outer loop
    vertex -91.91289217566806 200.87906273519826 0.0
    vertex -91.56139217566806 201.72759073519828 5.799999999999999
    vertex -91.56139217566806 201.72759073519828 0.0
  endloop
endfacet
facet normal -0.382694391858573 0.9238749928642928 0.0
  outer loop
    vertex -92.76139217566806 200.52759073519826 5.799999999999999
    vertex -91.91289217566806 200.87906273519826 0.0
    vertex -92.76139217566806 200.52759073519826 0.0
  endloop
endfacet
facet normal -0.382694391858573 0.9238749928642928 0.0
  outer loop
    vertex -91.91289217566806 200.87906273519826 0.0
    vertex -92.76139217566806 200.52759073519826 5.799999999999999
    vertex -91.91289217566806 200.87906273519826 5.799999999999999
  endloop
endfacet
facet normal 0.38269439185857296 0.9238749928642928 0.0
  outer loop
    vertex -93.60989217566805 200.87906273519826 5.799999999999999
    vertex -92.76139217566806 200.52759073519826 0.0
    vertex -93.60989217566805 200.87906273519826 0.0
  endloop
endfacet
facet normal 0.38269439185857296 0.9238749928642928 0.0
  outer loop
    vertex -92.76139217566806 200.52759073519826 0.0
    vertex -93.60989217566805 200.87906273519826 5.799999999999999
    vertex -92.76139217566806 200.52759073519826 5.799999999999999
  endloop
endfacet
facet normal -0.5735762323250656 0.8191521871494836 -0.0
  outer loop
    vertex -27.853192175668067 204.72759073519825 5.800000000000682
    vertex -4.828292175668068 220.84979073519827 0.0
    vertex -27.853192175668067 204.72759073519825 0.0
  endloop
endfacet
facet normal -0.5735762323250656 0.8191521871494836 -0.0
  outer loop
    vertex -4.828292175668068 220.84979073519827 0.0
    vertex -27.853192175668067 204.72759073519825 5.800000000000682
    vertex -4.828292175668068 220.84979073519827 5.800000000000682
  endloop
endfacet
facet normal -0.0 1.0 -0.0
  outer loop
    vertex -43.74246853462616 204.72759073519825 5.800000000000682
    vertex -27.853192175668067 204.72759073519825 0.0
    vertex -43.74246853462616 204.72759073519825 0.0
  endloop
endfacet
facet normal -0.0 1.0 -0.0
  outer loop
    vertex -27.853192175668067 204.72759073519825 0.0
    vertex -43.74246853462616 204.72759073519825 5.800000000000682
    vertex -27.853192175668067 204.72759073519825 5.800000000000682
  endloop
endfacet
facet normal 0.0 -1.0 0.0
  outer loop
    vertex -27.747292175668054 198.72759073519828 5.800000000000682
    vertex -43.74246853462616 198.72759073519828 0.0
    vertex -27.747292175668054 198.72759073519828 0.0
  endloop
endfacet
facet normal 0.0 -1.0 0.0
  outer loop
    vertex -43.74246853462616 198.72759073519828 0.0
    vertex -27.747292175668054 198.72759073519828 5.800000000000682
    vertex -43.74246853462616 198.72759073519828 5.800000000000682
  endloop
endfacet
facet normal 2.466601899845973e-32 7.95459360818172e-33 1.0
  outer loop
    vertex -0.18979217566806045 183.77959073519827 5.800000000000682
    vertex -0.6084921756680621 186.70229073519826 5.800000000000682
    vertex -0.8400921756680529 182.80629073519825 5.800000000000682
  endloop
endfacet
facet normal 2.466601899845973e-32 7.95459360818172e-33 1.0
  outer loop
    vertex -0.6084921756680621 186.70229073519826 5.800000000000682
    vertex -0.18979217566806045 183.77959073519827 5.800000000000682
    vertex -0.18979217566806045 186.07569073519826 5.800000000000682
  endloop
endfacet
facet normal 2.466601899845973e-32 7.95459360818172e-33 1.0
  outer loop
    vertex -0.18979217566806045 186.07569073519826 5.800000000000682
    vertex -0.18979217566806045 183.77959073519827 5.800000000000682
    vertex 0.03860782433194112 184.92759073519827 5.800000000000682
  endloop
endfacet
facet normal 2.466601899845973e-32 7.95459360818172e-33 1.0
  outer loop
    vertex -5.147292175668063 182.90289073519827 5.800000000000682
    vertex -21.62399217566806 201.76465503519827 5.800000000000682
    vertex -27.747292175668054 198.72759073519828 5.800000000000682
  endloop
endfacet
facet normal 2.466601899845973e-32 7.95459360818172e-33 1.0
  outer loop
    vertex -21.62399217566806 201.76465503519827 5.800000000000682
    vertex -5.147292175668063 182.90289073519827 5.800000000000682
    vertex -0.4453921756680553 186.93519073519826 5.800000000000682
  endloop
endfacet
facet normal 2.466601899845973e-32 7.95459360818172e-33 1.0
  outer loop
    vertex -0.4453921756680553 186.93519073519826 5.800000000000682
    vertex -5.147292175668063 182.90289073519827 5.800000000000682
    vertex -5.082692175668065 182.80629073519825 5.800000000000682
  endloop
endfacet
facet normal 2.466601899845973e-32 7.95459360818172e-33 1.0
  outer loop
    vertex -0.4453921756680553 186.93519073519826 5.800000000000682
    vertex -5.082692175668065 182.80629073519825 5.800000000000682
    vertex -4.109492175668057 182.15599073519826 5.800000000000682
  endloop
endfacet
facet normal 2.466601899845973e-32 7.95459360818172e-33 1.0
  outer loop
    vertex -0.4453921756680553 186.93519073519826 5.800000000000682
    vertex -4.109492175668057 182.15599073519826 5.800000000000682
    vertex -4.069092175668059 182.14789073519827 5.800000000000682
  endloop
endfacet
facet normal 2.466601899845973e-32 7.95459360818172e-33 1.0
  outer loop
    vertex -0.4453921756680553 186.93519073519826 5.800000000000682
    vertex -4.069092175668059 182.14789073519827 5.800000000000682
    vertex -0.6084921756680621 186.70229073519826 5.800000000000682
  endloop
endfacet
facet normal 2.466601899845973e-32 7.95459360818172e-33 1.0
  outer loop
    vertex -0.6084921756680621 186.70229073519826 5.800000000000682
    vertex -4.069092175668059 182.14789073519827 5.800000000000682
    vertex -3.830692175668053 182.10049073519826 5.800000000000682
  endloop
endfacet
facet normal 2.466601899845973e-32 7.95459360818172e-33 1.0
  outer loop
    vertex -3.830692175668053 182.10049073519826 5.800000000000682
    vertex -4.069092175668059 182.14789073519827 5.800000000000682
    vertex -3.8867921756680603 182.02029073519827 5.800000000000682
  endloop
endfacet
facet normal 2.466601899845973e-32 7.95459360818172e-33 1.0
  outer loop
    vertex -0.6084921756680621 186.70229073519826 5.800000000000682
    vertex -3.830692175668053 182.10049073519826 5.800000000000682
    vertex -2.9613921756680646 181.92759073519827 5.800000000000682
  endloop
endfacet
facet normal 2.466601899845973e-32 7.95459360818172e-33 1.0
  outer loop
    vertex -0.6084921756680621 186.70229073519826 5.800000000000682
    vertex -2.9613921756680646 181.92759073519827 5.800000000000682
    vertex -1.81339217566807 182.15599073519826 5.800000000000682
  endloop
endfacet
facet normal 2.466601899845973e-32 7.95459360818172e-33 1.0
  outer loop
    vertex -0.6084921756680621 186.70229073519826 5.800000000000682
    vertex -1.81339217566807 182.15599073519826 5.800000000000682
    vertex -0.8400921756680529 182.80629073519825 5.800000000000682
  endloop
endfacet
facet normal 2.466601899845973e-32 7.95459360818172e-33 1.0
  outer loop
    vertex -27.747292175668054 198.72759073519828 5.800000000000682
    vertex -43.74246853462616 204.72759073519825 5.800000000000682
    vertex -43.74246853462616 198.72759073519828 5.800000000000682
  endloop
endfacet
facet normal 2.466601899845973e-32 7.95459360818172e-33 1.0
  outer loop
    vertex -43.74246853462616 204.72759073519825 5.800000000000682
    vertex -27.747292175668054 198.72759073519828 5.800000000000682
    vertex -27.853192175668067 204.72759073519825 5.800000000000682
  endloop
endfacet
facet normal 2.466601899845973e-32 7.95459360818172e-33 1.0
  outer loop
    vertex -27.853192175668067 204.72759073519825 5.800000000000682
    vertex -27.747292175668054 198.72759073519828 5.800000000000682
    vertex -4.828292175668068 220.84979073519827 5.800000000000682
  endloop
endfacet
facet normal 2.466601899845973e-32 7.95459360818172e-33 1.0
  outer loop
    vertex -4.828292175668068 220.84979073519827 5.800000000000682
    vertex -27.747292175668054 198.72759073519828 5.800000000000682
    vertex -21.62399217566806 201.76465503519827 5.800000000000682
  endloop
endfacet
facet normal 2.466601899845973e-32 7.95459360818172e-33 1.0
  outer loop
    vertex -4.828292175668068 220.84979073519827 5.800000000000682
    vertex -21.62399217566806 201.76465503519827 5.800000000000682
    vertex -4.81359217566806 220.82879073519828 5.800000000000682
  endloop
endfacet
facet normal 2.466601899845973e-32 7.95459360818172e-33 1.0
  outer loop
    vertex -4.81359217566806 220.82879073519828 5.800000000000682
    vertex -21.62399217566806 201.76465503519827 5.800000000000682
    vertex -1.4373921756680634 216.00709073519826 5.800000000000682
  endloop
endfacet
facet normal 2.466601899845973e-32 7.95459360818172e-33 1.0
  outer loop
    vertex -1.4373921756680634 216.00709073519826 5.800000000000682
    vertex -21.62399217566806 201.76465503519827 5.800000000000682
    vertex -1.3867921756680535 215.93489073519825 5.800000000000682
  endloop
endfacet
facet normal 2.466601899845973e-32 7.95459360818172e-33 1.0
  outer loop
    vertex -4.81359217566806 220.82879073519828 5.800000000000682
    vertex -1.4373921756680634 216.00709073519826 5.800000000000682
    vertex -4.109492175668057 221.2991907351983 5.800000000000682
  endloop
endfacet
facet normal 2.466601899845973e-32 7.95459360818172e-33 1.0
  outer loop
    vertex -4.109492175668057 221.2991907351983 5.800000000000682
    vertex -1.4373921756680634 216.00709073519826 5.800000000000682
    vertex -2.9613921756680646 221.52759073519826 5.800000000000682
  endloop
endfacet
facet normal 2.466601899845973e-32 7.95459360818172e-33 1.0
  outer loop
    vertex -2.9613921756680646 221.52759073519826 5.800000000000682
    vertex -1.4373921756680634 216.00709073519826 5.800000000000682
    vertex -1.81339217566807 221.2991907351983 5.800000000000682
  endloop
endfacet
facet normal 2.466601899845973e-32 7.95459360818172e-33 1.0
  outer loop
    vertex -1.4373921756680634 216.00709073519826 5.800000000000682
    vertex -0.8400921756680529 220.64889073519825 5.800000000000682
    vertex -1.81339217566807 221.2991907351983 5.800000000000682
  endloop
endfacet
facet normal 2.466601899845973e-32 7.95459360818172e-33 1.0
  outer loop
    vertex -0.8400921756680529 220.64889073519825 5.800000000000682
    vertex -1.4373921756680634 216.00709073519826 5.800000000000682
    vertex -0.8400921756680529 216.40629073519827 5.800000000000682
  endloop
endfacet
facet normal 2.466601899845973e-32 7.95459360818172e-33 1.0
  outer loop
    vertex -0.8400921756680529 220.64889073519825 5.800000000000682
    vertex -0.8400921756680529 216.40629073519827 5.800000000000682
    vertex -0.18979217566806045 217.3794907351983 5.800000000000682
  endloop
endfacet
facet normal 2.466601899845973e-32 7.95459360818172e-33 1.0
  outer loop
    vertex -0.8400921756680529 220.64889073519825 5.800000000000682
    vertex -0.18979217566806045 217.3794907351983 5.800000000000682
    vertex -0.18979217566806045 219.67559073519823 5.800000000000682
  endloop
endfacet
facet normal 2.466601899845973e-32 7.95459360818172e-33 1.0
  outer loop
    vertex -0.18979217566806045 219.67559073519823 5.800000000000682
    vertex -0.18979217566806045 217.3794907351983 5.800000000000682
    vertex 0.03860782433194112 218.5275907351983 5.800000000000682
  endloop
endfacet
facet normal -0.0 1.0 -0.0
  outer loop
    vertex -110.86139217566804 204.72759073519825 5.799999999999999
    vertex -43.74246853462616 204.72759073519825 0.0
    vertex -110.86139217566804 204.72759073519825 0.0
  endloop
endfacet
facet normal -0.0 1.0 -0.0
  outer loop
    vertex -43.74246853462616 204.72759073519825 0.0
    vertex -110.86139217566804 204.72759073519825 5.799999999999999
    vertex -43.74246853462616 204.72759073519825 5.800000000000682
  endloop
endfacet
facet normal 0.0 -1.0 0.0
  outer loop
    vertex -43.74246853462616 198.72759073519828 5.800000000000682
    vertex -110.86139217566804 198.72759073519828 0.0
    vertex -43.74246853462616 198.72759073519828 0.0
  endloop
endfacet
facet normal 0.0 -1.0 0.0
  outer loop
    vertex -110.86139217566804 198.72759073519828 0.0
    vertex -43.74246853462616 198.72759073519828 5.800000000000682
    vertex -110.86139217566804 198.72759073519828 5.799999999999999
  endloop
endfacet
facet normal 0.0 0.0 -1.0
  outer loop
    vertex -113.63303217566806 202.87564073519826 0.0
    vertex -113.63303217566806 200.57954073519826 0.0
    vertex -113.86139217566806 201.72759073519828 0.0
  endloop
endfacet
facet normal 0.0 0.0 -1.0
  outer loop
    vertex -113.63303217566806 200.57954073519826 0.0
    vertex -113.63303217566806 202.87564073519826 0.0
    vertex -112.98271217566807 203.84891073519827 0.0
  endloop
endfacet
facet normal 0.0 0.0 -1.0
  outer loop
    vertex -113.63303217566806 200.57954073519826 0.0
    vertex -112.98271217566807 203.84891073519827 0.0
    vertex -112.98271217566807 199.60627073519828 0.0
  endloop
endfacet
facet normal 0.0 0.0 -1.0
  outer loop
    vertex -112.98271217566807 199.60627073519828 0.0
    vertex -112.98271217566807 203.84891073519827 0.0
    vertex -112.00944217566804 204.49923073519827 0.0
  endloop
endfacet
facet normal 0.0 0.0 -1.0
  outer loop
    vertex -112.98271217566807 199.60627073519828 0.0
    vertex -112.00944217566804 204.49923073519827 0.0
    vertex -112.00944217566804 198.95595073519826 0.0
  endloop
endfacet
facet normal 0.0 0.0 -1.0
  outer loop
    vertex -112.00944217566804 198.95595073519826 0.0
    vertex -112.00944217566804 204.49923073519827 0.0
    vertex -110.86139217566804 204.72759073519825 0.0
  endloop
endfacet
facet normal 0.0 0.0 -1.0
  outer loop
    vertex -112.00944217566804 198.95595073519826 0.0
    vertex -110.86139217566804 204.72759073519825 0.0
    vertex -110.86139217566804 198.72759073519828 0.0
  endloop
endfacet
facet normal 0.0 0.0 -1.0
  outer loop
    vertex -110.86139217566804 198.72759073519828 0.0
    vertex -110.86139217566804 204.72759073519825 0.0
    vertex -106.78063117566805 202.64682973519825 0.0
  endloop
endfacet
facet normal 0.0 0.0 -1.0
  outer loop
    vertex -106.78063117566805 202.64682973519825 0.0
    vertex -110.86139217566804 204.72759073519825 0.0
    vertex -105.86139217566806 203.02759073519826 0.0
  endloop
endfacet
facet normal 0.0 0.0 -1.0
  outer loop
    vertex -105.86139217566806 203.02759073519826 0.0
    vertex -110.86139217566804 204.72759073519825 0.0
    vertex -43.74246853462616 204.72759073519825 0.0
  endloop
endfacet
facet normal 0.0 0.0 -1.0
  outer loop
    vertex -110.86139217566804 198.72759073519828 0.0
    vertex -106.78063117566805 202.64682973519825 0.0
    vertex -107.16139217566806 201.72759073519828 0.0
  endloop
endfacet
facet normal 0.0 0.0 -1.0
  outer loop
    vertex -105.86139217566806 203.02759073519826 0.0
    vertex -43.74246853462616 204.72759073519825 0.0
    vertex -98.86139217566806 202.92759073519827 0.0
  endloop
endfacet
facet normal 0.0 0.0 -1.0
  outer loop
    vertex -105.86139217566806 203.02759073519826 0.0
    vertex -98.86139217566806 202.92759073519827 0.0
    vertex -104.94215317566807 202.64682973519825 0.0
  endloop
endfacet
facet normal 0.0 0.0 -1.0
  outer loop
    vertex -104.94215317566807 202.64682973519825 0.0
    vertex -98.86139217566806 202.92759073519827 0.0
    vertex -104.56139217566806 201.72759073519828 0.0
  endloop
endfacet
facet normal 0.0 0.0 -1.0
  outer loop
    vertex -104.56139217566806 201.72759073519828 0.0
    vertex -98.86139217566806 202.92759073519827 0.0
    vertex -99.70992217566805 202.57611873519826 0.0
  endloop
endfacet
facet normal 0.0 0.0 -1.0
  outer loop
    vertex -104.56139217566806 201.72759073519828 0.0
    vertex -99.70992217566805 202.57611873519826 0.0
    vertex -100.06139217566806 201.72759073519828 0.0
  endloop
endfacet
facet normal 0.0 0.0 -1.0
  outer loop
    vertex -98.86139217566806 202.92759073519827 0.0
    vertex -43.74246853462616 204.72759073519825 0.0
    vertex -92.76139217566806 202.92759073519827 0.0
  endloop
endfacet
facet normal 0.0 0.0 -1.0
  outer loop
    vertex -98.86139217566806 202.92759073519827 0.0
    vertex -92.76139217566806 202.92759073519827 0.0
    vertex -98.01286217566805 202.57611873519826 0.0
  endloop
endfacet
facet normal 0.0 0.0 -1.0
  outer loop
    vertex -98.01286217566805 202.57611873519826 0.0
    vertex -92.76139217566806 202.92759073519827 0.0
    vertex -97.66139217566806 201.72759073519828 0.0
  endloop
endfacet
facet normal 0.0 0.0 -1.0
  outer loop
    vertex -97.66139217566806 201.72759073519828 0.0
    vertex -92.76139217566806 202.92759073519827 0.0
    vertex -93.60989217566805 202.57611873519826 0.0
  endloop
endfacet
facet normal 0.0 0.0 -1.0
  outer loop
    vertex -97.66139217566806 201.72759073519828 0.0
    vertex -93.60989217566805 202.57611873519826 0.0
    vertex -93.96139217566805 201.72759073519828 0.0
  endloop
endfacet
facet normal 0.0 0.0 -1.0
  outer loop
    vertex -92.76139217566806 202.92759073519827 0.0
    vertex -43.74246853462616 204.72759073519825 0.0
    vertex -91.91289217566806 202.57611873519826 0.0
  endloop
endfacet
facet normal 0.0 0.0 -1.0
  outer loop
    vertex -91.91289217566806 202.57611873519826 0.0
    vertex -43.74246853462616 204.72759073519825 0.0
    vertex -91.56139217566806 201.72759073519828 0.0
  endloop
endfacet
facet normal 0.0 0.0 -1.0
  outer loop
    vertex -110.86139217566804 198.72759073519828 0.0
    vertex -105.86139217566806 200.42759073519827 0.0
    vertex -43.74246853462616 198.72759073519828 0.0
  endloop
endfacet
facet normal 0.0 0.0 -1.0
  outer loop
    vertex -105.86139217566806 200.42759073519827 0.0
    vertex -110.86139217566804 198.72759073519828 0.0
    vertex -106.78063117566805 200.80835173519827 0.0
  endloop
endfacet
facet normal 0.0 0.0 -1.0
  outer loop
    vertex -106.78063117566805 200.80835173519827 0.0
    vertex -110.86139217566804 198.72759073519828 0.0
    vertex -107.16139217566806 201.72759073519828 0.0
  endloop
endfacet
facet normal 0.0 0.0 -1.0
  outer loop
    vertex -43.74246853462616 198.72759073519828 0.0
    vertex -105.86139217566806 200.42759073519827 0.0
    vertex -98.86139217566806 200.52759073519826 0.0
  endloop
endfacet
facet normal 0.0 0.0 -1.0
  outer loop
    vertex -98.86139217566806 200.52759073519826 0.0
    vertex -105.86139217566806 200.42759073519827 0.0
    vertex -104.94215317566807 200.80835173519827 0.0
  endloop
endfacet
facet normal 0.0 0.0 -1.0
  outer loop
    vertex -98.86139217566806 200.52759073519826 0.0
    vertex -104.94215317566807 200.80835173519827 0.0
    vertex -104.56139217566806 201.72759073519828 0.0
  endloop
endfacet
facet normal 0.0 0.0 -1.0
  outer loop
    vertex -98.86139217566806 200.52759073519826 0.0
    vertex -104.56139217566806 201.72759073519828 0.0
    vertex -99.70992217566805 200.87906273519826 0.0
  endloop
endfacet
facet normal 0.0 0.0 -1.0
  outer loop
    vertex -99.70992217566805 200.87906273519826 0.0
    vertex -104.56139217566806 201.72759073519828 0.0
    vertex -100.06139217566806 201.72759073519828 0.0
  endloop
endfacet
facet normal 0.0 0.0 -1.0
  outer loop
    vertex -43.74246853462616 198.72759073519828 0.0
    vertex -98.86139217566806 200.52759073519826 0.0
    vertex -92.76139217566806 200.52759073519826 0.0
  endloop
endfacet
facet normal 0.0 0.0 -1.0
  outer loop
    vertex -92.76139217566806 200.52759073519826 0.0
    vertex -98.86139217566806 200.52759073519826 0.0
    vertex -98.01286217566805 200.87906273519826 0.0
  endloop
endfacet
facet normal 0.0 0.0 -1.0
  outer loop
    vertex -92.76139217566806 200.52759073519826 0.0
    vertex -98.01286217566805 200.87906273519826 0.0
    vertex -97.66139217566806 201.72759073519828 0.0
  endloop
endfacet
facet normal 0.0 0.0 -1.0
  outer loop
    vertex -92.76139217566806 200.52759073519826 0.0
    vertex -97.66139217566806 201.72759073519828 0.0
    vertex -93.60989217566805 200.87906273519826 0.0
  endloop
endfacet
facet normal 0.0 0.0 -1.0
  outer loop
    vertex -93.60989217566805 200.87906273519826 0.0
    vertex -97.66139217566806 201.72759073519828 0.0
    vertex -93.96139217566805 201.72759073519828 0.0
  endloop
endfacet
facet normal 0.0 0.0 -1.0
  outer loop
    vertex -43.74246853462616 198.72759073519828 0.0
    vertex -92.76139217566806 200.52759073519826 0.0
    vertex -91.91289217566806 200.87906273519826 0.0
  endloop
endfacet
facet normal 0.0 0.0 -1.0
  outer loop
    vertex -43.74246853462616 198.72759073519828 0.0
    vertex -91.91289217566806 200.87906273519826 0.0
    vertex -91.56139217566806 201.72759073519828 0.0
  endloop
endfacet
facet normal 0.0 0.0 -1.0
  outer loop
    vertex -43.74246853462616 198.72759073519828 0.0
    vertex -91.56139217566806 201.72759073519828 0.0
    vertex -43.74246853462616 204.72759073519825 0.0
  endloop
endfacet
facet normal 1.0 -0.0 -0.0
  outer loop
    vertex -43.74246853462616 204.72759073519825 0.0
    vertex -43.74246853462616 198.72759073519828 5.800000000000682
    vertex -43.74246853462616 198.72759073519828 0.0
  endloop
endfacet
facet normal 1.0 -0.0 -0.0
  outer loop
    vertex -43.74246853462616 198.72759073519828 5.800000000000682
    vertex -43.74246853462616 204.72759073519825 0.0
    vertex -43.74246853462616 204.72759073519825 5.800000000000682
  endloop
endfacet
facet normal -9.90611206509505e-15 2.082214071801176e-30 1.0
  outer loop
    vertex -113.63303217566806 200.57954073519826 5.799999999999999
    vertex -113.63303217566806 202.87564073519826 5.799999999999999
    vertex -113.86139217566806 201.72759073519828 5.799999999999999
  endloop
endfacet
facet normal -9.90611206509505e-15 2.082214071801176e-30 1.0
  outer loop
    vertex -113.63303217566806 202.87564073519826 5.799999999999999
    vertex -113.63303217566806 200.57954073519826 5.799999999999999
    vertex -112.98271217566807 199.60627073519828 5.799999999999999
  endloop
endfacet
facet normal -9.90611206509505e-15 2.082214071801176e-30 1.0
  outer loop
    vertex -113.63303217566806 202.87564073519826 5.799999999999999
    vertex -112.98271217566807 199.60627073519828 5.799999999999999
    vertex -112.98271217566807 203.84891073519827 5.799999999999999
  endloop
endfacet
facet normal -9.90611206509505e-15 2.082214071801176e-30 1.0
  outer loop
    vertex -112.98271217566807 203.84891073519827 5.799999999999999
    vertex -112.98271217566807 199.60627073519828 5.799999999999999
    vertex -112.00944217566804 198.95595073519826 5.799999999999999
  endloop
endfacet
facet normal -9.90611206509505e-15 2.082214071801176e-30 1.0
  outer loop
    vertex -112.98271217566807 203.84891073519827 5.799999999999999
    vertex -112.00944217566804 198.95595073519826 5.799999999999999
    vertex -112.00944217566804 204.49923073519827 5.799999999999999
  endloop
endfacet
facet normal -9.90611206509505e-15 2.082214071801176e-30 1.0
  outer loop
    vertex -112.00944217566804 204.49923073519827 5.799999999999999
    vertex -112.00944217566804 198.95595073519826 5.799999999999999
    vertex -110.86139217566804 198.72759073519828 5.799999999999999
  endloop
endfacet
facet normal -9.90611206509505e-15 2.082214071801176e-30 1.0
  outer loop
    vertex -112.00944217566804 204.49923073519827 5.799999999999999
    vertex -110.86139217566804 198.72759073519828 5.799999999999999
    vertex -110.86139217566804 204.72759073519825 5.799999999999999
  endloop
endfacet
facet normal -9.90611206509505e-15 2.082214071801176e-30 1.0
  outer loop
    vertex -110.86139217566804 204.72759073519825 5.799999999999999
    vertex -110.86139217566804 198.72759073519828 5.799999999999999
    vertex -106.78063117566805 200.80835173519827 5.799999999999999
  endloop
endfacet
facet normal -9.90611206509505e-15 2.082214071801176e-30 1.0
  outer loop
    vertex -106.78063117566805 200.80835173519827 5.799999999999999
    vertex -110.86139217566804 198.72759073519828 5.799999999999999
    vertex -105.86139217566806 200.42759073519827 5.799999999999999
  endloop
endfacet
facet normal -9.90611206509505e-15 2.082214071801176e-30 1.0
  outer loop
    vertex -105.86139217566806 200.42759073519827 5.799999999999999
    vertex -110.86139217566804 198.72759073519828 5.799999999999999
    vertex -43.74246853462616 198.72759073519828 5.800000000000682
  endloop
endfacet
facet normal -9.90611206509505e-15 2.082214071801176e-30 1.0
  outer loop
    vertex -110.86139217566804 204.72759073519825 5.799999999999999
    vertex -106.78063117566805 200.80835173519827 5.799999999999999
    vertex -107.16139217566806 201.72759073519828 5.799999999999999
  endloop
endfacet
facet normal -9.90611206509505e-15 2.082214071801176e-30 1.0
  outer loop
    vertex -105.86139217566806 200.42759073519827 5.799999999999999
    vertex -43.74246853462616 198.72759073519828 5.800000000000682
    vertex -98.86139217566806 200.52759073519826 5.799999999999999
  endloop
endfacet
facet normal -9.90611206509505e-15 2.082214071801176e-30 1.0
  outer loop
    vertex -105.86139217566806 200.42759073519827 5.799999999999999
    vertex -98.86139217566806 200.52759073519826 5.799999999999999
    vertex -104.94215317566807 200.80835173519827 5.799999999999999
  endloop
endfacet
facet normal -9.90611206509505e-15 2.082214071801176e-30 1.0
  outer loop
    vertex -104.94215317566807 200.80835173519827 5.799999999999999
    vertex -98.86139217566806 200.52759073519826 5.799999999999999
    vertex -104.56139217566806 201.72759073519828 5.799999999999999
  endloop
endfacet
facet normal -9.90611206509505e-15 2.082214071801176e-30 1.0
  outer loop
    vertex -104.56139217566806 201.72759073519828 5.799999999999999
    vertex -98.86139217566806 200.52759073519826 5.799999999999999
    vertex -99.70992217566805 200.87906273519826 5.799999999999999
  endloop
endfacet
facet normal -9.90611206509505e-15 2.082214071801176e-30 1.0
  outer loop
    vertex -104.56139217566806 201.72759073519828 5.799999999999999
    vertex -99.70992217566805 200.87906273519826 5.799999999999999
    vertex -100.06139217566806 201.72759073519828 5.799999999999999
  endloop
endfacet
facet normal -9.90611206509505e-15 2.082214071801176e-30 1.0
  outer loop
    vertex -98.86139217566806 200.52759073519826 5.799999999999999
    vertex -43.74246853462616 198.72759073519828 5.800000000000682
    vertex -92.76139217566806 200.52759073519826 5.799999999999999
  endloop
endfacet
facet normal -9.90611206509505e-15 2.082214071801176e-30 1.0
  outer loop
    vertex -98.86139217566806 200.52759073519826 5.799999999999999
    vertex -92.76139217566806 200.52759073519826 5.799999999999999
    vertex -98.01286217566805 200.87906273519826 5.799999999999999
  endloop
endfacet
facet normal -9.90611206509505e-15 2.082214071801176e-30 1.0
  outer loop
    vertex -98.01286217566805 200.87906273519826 5.799999999999999
    vertex -92.76139217566806 200.52759073519826 5.799999999999999
    vertex -97.66139217566806 201.72759073519828 5.799999999999999
  endloop
endfacet
facet normal -9.90611206509505e-15 2.082214071801176e-30 1.0
  outer loop
    vertex -97.66139217566806 201.72759073519828 5.799999999999999
    vertex -92.76139217566806 200.52759073519826 5.799999999999999
    vertex -93.60989217566805 200.87906273519826 5.799999999999999
  endloop
endfacet
facet normal -9.90611206509505e-15 2.082214071801176e-30 1.0
  outer loop
    vertex -97.66139217566806 201.72759073519828 5.799999999999999
    vertex -93.60989217566805 200.87906273519826 5.799999999999999
    vertex -93.96139217566805 201.72759073519828 5.799999999999999
  endloop
endfacet
facet normal -9.90611206509505e-15 2.082214071801176e-30 1.0
  outer loop
    vertex -92.76139217566806 200.52759073519826 5.799999999999999
    vertex -43.74246853462616 198.72759073519828 5.800000000000682
    vertex -91.91289217566806 200.87906273519826 5.799999999999999
  endloop
endfacet
facet normal -9.90611206509505e-15 2.082214071801176e-30 1.0
  outer loop
    vertex -91.91289217566806 200.87906273519826 5.799999999999999
    vertex -43.74246853462616 198.72759073519828 5.800000000000682
    vertex -91.56139217566806 201.72759073519828 5.799999999999999
  endloop
endfacet
facet normal -9.90611206509505e-15 2.082214071801176e-30 1.0
  outer loop
    vertex -110.86139217566804 204.72759073519825 5.799999999999999
    vertex -105.86139217566806 203.02759073519826 5.799999999999999
    vertex -43.74246853462616 204.72759073519825 5.800000000000682
  endloop
endfacet
facet normal -9.90611206509505e-15 2.082214071801176e-30 1.0
  outer loop
    vertex -105.86139217566806 203.02759073519826 5.799999999999999
    vertex -110.86139217566804 204.72759073519825 5.799999999999999
    vertex -106.78063117566805 202.64682973519825 5.799999999999999
  endloop
endfacet
facet normal -9.90611206509505e-15 2.082214071801176e-30 1.0
  outer loop
    vertex -106.78063117566805 202.64682973519825 5.799999999999999
    vertex -110.86139217566804 204.72759073519825 5.799999999999999
    vertex -107.16139217566806 201.72759073519828 5.799999999999999
  endloop
endfacet
facet normal -9.90611206509505e-15 2.082214071801176e-30 1.0
  outer loop
    vertex -43.74246853462616 204.72759073519825 5.800000000000682
    vertex -105.86139217566806 203.02759073519826 5.799999999999999
    vertex -98.86139217566806 202.92759073519827 5.799999999999999
  endloop
endfacet
facet normal -9.90611206509505e-15 2.082214071801176e-30 1.0
  outer loop
    vertex -98.86139217566806 202.92759073519827 5.799999999999999
    vertex -105.86139217566806 203.02759073519826 5.799999999999999
    vertex -104.94215317566807 202.64682973519825 5.799999999999999
  endloop
endfacet
facet normal -9.90611206509505e-15 2.082214071801176e-30 1.0
  outer loop
    vertex -98.86139217566806 202.92759073519827 5.799999999999999
    vertex -104.94215317566807 202.64682973519825 5.799999999999999
    vertex -104.56139217566806 201.72759073519828 5.799999999999999
  endloop
endfacet
facet normal -9.90611206509505e-15 2.082214071801176e-30 1.0
  outer loop
    vertex -98.86139217566806 202.92759073519827 5.799999999999999
    vertex -104.56139217566806 201.72759073519828 5.799999999999999
    vertex -99.70992217566805 202.57611873519826 5.799999999999999
  endloop
endfacet
facet normal -9.90611206509505e-15 2.082214071801176e-30 1.0
  outer loop
    vertex -99.70992217566805 202.57611873519826 5.799999999999999
    vertex -104.56139217566806 201.72759073519828 5.799999999999999
    vertex -100.06139217566806 201.72759073519828 5.799999999999999
  endloop
endfacet
facet normal -9.90611206509505e-15 2.082214071801176e-30 1.0
  outer loop
    vertex -43.74246853462616 204.72759073519825 5.800000000000682
    vertex -98.86139217566806 202.92759073519827 5.799999999999999
    vertex -92.76139217566806 202.92759073519827 5.799999999999999
  endloop
endfacet
facet normal -9.90611206509505e-15 2.082214071801176e-30 1.0
  outer loop
    vertex -92.76139217566806 202.92759073519827 5.799999999999999
    vertex -98.86139217566806 202.92759073519827 5.799999999999999
    vertex -98.01286217566805 202.57611873519826 5.799999999999999
  endloop
endfacet
facet normal -9.90611206509505e-15 2.082214071801176e-30 1.0
  outer loop
    vertex -92.76139217566806 202.92759073519827 5.799999999999999
    vertex -98.01286217566805 202.57611873519826 5.799999999999999
    vertex -97.66139217566806 201.72759073519828 5.799999999999999
  endloop
endfacet
facet normal -9.90611206509505e-15 2.082214071801176e-30 1.0
  outer loop
    vertex -92.76139217566806 202.92759073519827 5.799999999999999
    vertex -97.66139217566806 201.72759073519828 5.799999999999999
    vertex -93.60989217566805 202.57611873519826 5.799999999999999
  endloop
endfacet
facet normal -9.90611206509505e-15 2.082214071801176e-30 1.0
  outer loop
    vertex -93.60989217566805 202.57611873519826 5.799999999999999
    vertex -97.66139217566806 201.72759073519828 5.799999999999999
    vertex -93.96139217566805 201.72759073519828 5.799999999999999
  endloop
endfacet
facet normal -9.90611206509505e-15 2.082214071801176e-30 1.0
  outer loop
    vertex -43.74246853462616 204.72759073519825 5.800000000000682
    vertex -92.76139217566806 202.92759073519827 5.799999999999999
    vertex -91.91289217566806 202.57611873519826 5.799999999999999
  endloop
endfacet
facet normal -9.90611206509505e-15 2.082214071801176e-30 1.0
  outer loop
    vertex -43.74246853462616 204.72759073519825 5.800000000000682
    vertex -91.91289217566806 202.57611873519826 5.799999999999999
    vertex -91.56139217566806 201.72759073519828 5.799999999999999
  endloop
endfacet
facet normal -9.90611206509505e-15 2.082214071801176e-30 1.0
  outer loop
    vertex -43.74246853462616 204.72759073519825 5.800000000000682
    vertex -91.56139217566806 201.72759073519828 5.799999999999999
    vertex -43.74246853462616 198.72759073519828 5.800000000000682
  endloop
endfacet
endsolid brobot MODEL v5 (1)
